<svg xmlns="http://www.w3.org/2000/svg" viewBox="0 0 24 30" fill="none" x="0px" y="0px"><path fill-rule="evenodd" clip-rule="evenodd" d="M1.25 2C1.25 1.58579 1.58579 1.25 2 1.25H3C3.41421 1.25 3.75 1.58579 3.75 2C3.75 2.41421 3.41421 2.75 3 2.75H2.75V21.25H21.25V2.75H7C6.58579 2.75 6.25 2.41421 6.25 2C6.25 1.58579 6.58579 1.25 7 1.25H22C22.4142 1.25 22.75 1.58579 22.75 2V22C22.75 22.4142 22.4142 22.75 22 22.75H2C1.58579 22.75 1.25 22.4142 1.25 22V2Z" fill="black"/><path fill-rule="evenodd" clip-rule="evenodd" d="M9.1866 7.18671C7.8407 6.37917 6.15928 6.37917 4.81338 7.18671L2.38586 8.64322C2.03068 8.85633 1.56998 8.74116 1.35687 8.38597C1.14376 8.03079 1.25893 7.57009 1.61412 7.35698L4.04164 5.90047C5.86256 4.80792 8.13742 4.80792 9.95834 5.90047L14.8134 8.8135C16.1593 9.62104 17.8407 9.62104 19.1866 8.8135L21.6141 7.35698C21.9693 7.14387 22.43 7.25905 22.6431 7.61423C22.8562 7.96942 22.741 8.43011 22.3859 8.64322L19.9583 10.0997C18.1374 11.1923 15.8626 11.1923 14.0416 10.0997L9.1866 7.18671Z" fill="black"/><path fill-rule="evenodd" clip-rule="evenodd" d="M7.18659 14.8135C6.37905 16.1594 6.37905 17.8408 7.18659 19.1867L8.6431 21.6143C8.85621 21.9694 8.74104 22.4301 8.38585 22.6433C8.03067 22.8564 7.56997 22.7412 7.35686 22.386L5.90035 19.9585C4.80779 18.1376 4.80779 15.8627 5.90035 14.0418L8.81337 9.18674C9.62091 7.84084 9.62091 6.15943 8.81337 4.81353L7.35686 2.386C7.14375 2.03082 7.25892 1.57012 7.61411 1.35701C7.96929 1.1439 8.42999 1.25908 8.6431 1.61426L10.0996 4.04178C11.1922 5.86271 11.1922 8.13756 10.0996 9.95848L7.18659 14.8135Z" fill="black"/><path fill-rule="evenodd" clip-rule="evenodd" d="M15.1866 14.8135C14.379 16.1594 14.379 17.8408 15.1866 19.1867L16.6431 21.6143C16.8562 21.9694 16.741 22.4301 16.3859 22.6433C16.0307 22.8564 15.57 22.7412 15.3569 22.386L13.9003 19.9585C12.8078 18.1376 12.8078 15.8627 13.9003 14.0418L16.8134 9.18674C17.6209 7.84084 17.6209 6.15943 16.8134 4.81353L15.3569 2.386C15.1437 2.03082 15.2589 1.57012 15.6141 1.35701C15.9693 1.1439 16.43 1.25908 16.6431 1.61426L18.0996 4.04178C19.1922 5.86271 19.1922 8.13756 18.0996 9.95848L15.1866 14.8135Z" fill="black"/><path fill-rule="evenodd" clip-rule="evenodd" d="M9.1866 15.1867C7.8407 14.3792 6.15928 14.3792 4.81338 15.1867L2.38586 16.6432C2.03068 16.8563 1.56998 16.7412 1.35687 16.386C1.14376 16.0308 1.25893 15.5701 1.61412 15.357L4.04164 13.9005C5.86256 12.8079 8.13742 12.8079 9.95834 13.9005L14.8134 16.8135C16.1593 17.621 17.8407 17.621 19.1866 16.8135L21.6141 15.357C21.9693 15.1439 22.43 15.259 22.6431 15.6142C22.8562 15.9694 22.741 16.4301 22.3859 16.6432L19.9583 18.0997C18.1374 19.1923 15.8626 19.1923 14.0416 18.0997L9.1866 15.1867Z" fill="black"/><text x="0" y="39" fill="#000000" font-size="5px" font-weight="bold" font-family="'Helvetica Neue', Helvetica, Arial-Unicode, Arial, Sans-serif">Created by Kawalan Icon</text><text x="0" y="44" fill="#000000" font-size="5px" font-weight="bold" font-family="'Helvetica Neue', Helvetica, Arial-Unicode, Arial, Sans-serif">from the Noun Project</text></svg>